<?xml version="1.0" encoding="utf-8"?>
<!-- Generator: Adobe Illustrator 23.0.1, SVG Export Plug-In . SVG Version: 6.00 Build 0)  -->
<svg version="1.1" xmlns="http://www.w3.org/2000/svg" xmlns:xlink="http://www.w3.org/1999/xlink" x="0px" y="0px"
	 viewBox="0 0 512 512" style="enable-background:new 0 0 512 512;" xml:space="preserve">
<style type="text/css">
	.st0{display:none;}
</style>
<g id="Warstwa_1" class="st0">
</g>
<g id="Warstwa_2">
	<g>
		<path d="M262.3,511.4l-1.5-61c3.5-0.1,6.9-0.3,10.4-0.5l4.7,60.8C271.4,511.1,266.8,511.3,262.3,511.4z"/>
		<path d="M248.7,511.4c-4.5-0.1-9.1-0.4-13.6-0.7l4.9-60.8c3.4,0.3,6.9,0.5,10.4,0.6L248.7,511.4z"/>
		<path d="M289.5,509.3l-7.9-60.5c3.4-0.4,6.9-1,10.2-1.6l11.1,60C298.5,508,294,508.7,289.5,509.3z"/>
		<path d="M221.6,509.2c-4.5-0.6-9-1.3-13.4-2.2l11.4-59.9c3.4,0.6,6.8,1.2,10.2,1.7L221.6,509.2z"/>
		<path d="M316.2,504.4l-14.3-59.3c3.3-0.8,6.7-1.7,10-2.7l17.5,58.4C325.1,502.1,320.6,503.3,316.2,504.4z"/>
		<path d="M194.8,504.1c-4.4-1.1-8.8-2.3-13.1-3.6l17.7-58.4c3.3,1,6.7,1.9,10,2.7L194.8,504.1z"/>
		<path d="M342.3,496.5l-20.6-57.4c3.2-1.2,6.5-2.4,9.6-3.8l23.7,56.2C350.9,493.3,346.6,495,342.3,496.5z"/>
		<path d="M168.7,496.2c-4.3-1.6-8.5-3.2-12.7-5l23.9-56.1c3.2,1.3,6.4,2.6,9.7,3.8L168.7,496.2z"/>
		<path d="M367.4,486l-26.6-54.9c3.1-1.5,6.2-3.1,9.2-4.8l29.5,53.4C375.5,481.9,371.5,484,367.4,486z"/>
		<path d="M143.6,485.5c-4.1-2-8.1-4.1-12.1-6.3l29.8-53.3c3,1.7,6.1,3.3,9.2,4.8L143.6,485.5z"/>
		<path d="M391.2,472.8l-32.3-51.7c2.9-1.8,5.8-3.8,8.6-5.7l35,49.9C398.9,467.9,395.1,470.4,391.2,472.8z"/>
		<path d="M119.8,472.2c-3.8-2.4-7.6-5-11.3-7.6l35.3-49.8c2.8,2,5.7,3.9,8.6,5.8L119.8,472.2z"/>
		<path d="M413.5,457.2l-37.6-48c2.7-2.1,5.4-4.3,8-6.6l40.1,45.9C420.6,451.5,417,454.4,413.5,457.2z"/>
		<path d="M97.6,456.5c-3.5-2.8-7.1-5.7-10.5-8.7l40.3-45.8c2.6,2.3,5.3,4.5,8,6.7L97.6,456.5z"/>
		<path d="M434,439.3l-42.5-43.8c2.5-2.4,4.9-4.9,7.3-7.4l44.8,41.4C440.4,432.9,437.2,436.2,434,439.3z"/>
		<path d="M77.2,438.5c-3.2-3.2-6.4-6.5-9.5-9.8l45-41.2c2.3,2.5,4.8,5,7.2,7.5L77.2,438.5z"/>
		<path d="M452.5,419.3l-46.9-39c2.2-2.7,4.4-5.4,6.4-8.2l48.9,36.5C458.2,412.3,455.4,415.9,452.5,419.3z"/>
		<path d="M58.8,418.4c-2.9-3.5-5.7-7.1-8.4-10.7l49.1-36.2c2,2.8,4.2,5.5,6.4,8.2L58.8,418.4z"/>
		<path d="M468.8,397.5L418,363.7c1.9-2.9,3.8-5.8,5.5-8.8L476,386C473.7,389.8,471.3,393.7,468.8,397.5z"/>
		<path d="M42.6,396.5c-2.5-3.8-4.9-7.7-7.2-11.6L88,354.1c1.7,3,3.6,5.9,5.5,8.8L42.6,396.5z"/>
		<path d="M482.7,374l-54.1-28.2c1.6-3.1,3.1-6.2,4.6-9.3l55.5,25.3C486.8,365.9,484.7,370,482.7,374z"/>
		<path d="M28.8,373.1c-2.1-4-4.1-8.1-5.9-12.3l55.6-25c1.4,3.1,2.9,6.3,4.5,9.3L28.8,373.1z"/>
		<path d="M494,349.2l-56.8-22.3c1.3-3.2,2.4-6.5,3.5-9.8l57.9,19.2C497.2,340.6,495.6,345,494,349.2z"/>
		<path d="M17.7,348.3c-1.6-4.2-3.2-8.5-4.6-12.8l58-18.9c1.1,3.3,2.2,6.5,3.5,9.8L17.7,348.3z"/>
		<path d="M502.5,323.3l-58.9-16c0.9-3.3,1.7-6.7,2.5-10.1l59.6,12.9C504.8,314.5,503.7,318.9,502.5,323.3z"/>
		<path d="M9.2,322.3C8,318,7,313.5,6,309.1l59.7-12.6c0.7,3.4,1.5,6.8,2.4,10.1L9.2,322.3z"/>
		<path d="M508.3,296.6L448,287c0.5-3.4,1-6.9,1.4-10.3l60.7,6.4C509.6,287.6,509,292.2,508.3,296.6z"/>
		<path d="M3.6,295.7c-0.7-4.5-1.3-9-1.7-13.5l60.7-6.2c0.3,3.4,0.8,6.9,1.3,10.3L3.6,295.7z"/>
		<path d="M511.1,269.6l-60.9-3.2c0.2-3.4,0.3-6.9,0.3-10.4h61C511.5,260.5,511.4,265.1,511.1,269.6z"/>
		<path d="M0.8,268.6c-0.2-4.2-0.3-8.4-0.3-12.6l0-1l61,0.2l0,0.8c0,3.2,0.1,6.5,0.2,9.6L0.8,268.6z"/>
		<path d="M450.3,247.1c-0.2-3.4-0.4-6.9-0.7-10.3l60.7-6c0.4,4.5,0.8,9.1,1,13.6L450.3,247.1z"/>
		<path d="M61.8,244.9l-60.9-3.4c0.3-4.5,0.6-9.1,1.1-13.6l60.6,6.7C62.3,237.9,62,241.4,61.8,244.9z"/>
		<path d="M448.3,226.5c-0.5-3.4-1.1-6.8-1.8-10.2l59.7-12.4c0.9,4.4,1.7,8.9,2.4,13.4L448.3,226.5z"/>
		<path d="M64.1,224.2l-60.2-9.9c0.7-4.5,1.6-9,2.6-13.4L66,214.1C65.3,217.4,64.6,220.8,64.1,224.2z"/>
		<path d="M444.1,206.2c-0.9-3.3-1.9-6.7-2.9-9.9l58.1-18.7c1.4,4.3,2.7,8.7,3.8,13.1L444.1,206.2z"/>
		<path d="M68.5,204L9.7,187.8c1.2-4.4,2.5-8.7,4-13l57.8,19.4C70.5,197.4,69.4,200.7,68.5,204z"/>
		<path d="M437.7,186.5c-1.2-3.2-2.6-6.4-4-9.5l55.7-24.8c1.8,4.1,3.6,8.4,5.2,12.6L437.7,186.5z"/>
		<path d="M75.1,184.4l-56.7-22.5c1.7-4.2,3.5-8.4,5.4-12.6l55.4,25.5C77.7,178,76.4,181.2,75.1,184.4z"/>
		<path d="M429.3,167.6c-1.6-3.1-3.2-6.1-5-9.1l52.8-30.6c2.3,3.9,4.5,7.9,6.5,11.9L429.3,167.6z"/>
		<path d="M83.8,165.5l-54-28.4c2.1-4,4.4-8,6.7-11.9l52.4,31.3C87.1,159.4,85.4,162.5,83.8,165.5z"/>
		<path d="M418.9,149.7c-1.9-2.9-3.9-5.7-5.9-8.5l49.2-36.1c2.7,3.6,5.3,7.4,7.8,11.2L418.9,149.7z"/>
		<path d="M94.4,147.7l-50.6-34c2.5-3.8,5.2-7.5,7.9-11.1l48.8,36.7C98.4,142,96.3,144.8,94.4,147.7z"/>
		<path d="M406.6,133c-2.2-2.7-4.5-5.3-6.8-7.9L445,84c3,3.3,6,6.8,8.9,10.3L406.6,133z"/>
		<path d="M106.9,131.1L60.1,91.9c2.9-3.5,5.9-6.9,9-10.2l44.6,41.6C111.4,125.9,109.1,128.5,106.9,131.1z"/>
		<path d="M392.7,117.6c-2.4-2.4-5-4.8-7.6-7.1l40.5-45.6c3.4,3,6.7,6.1,9.9,9.3L392.7,117.6z"/>
		<path d="M121,115.9L78.7,72c3.3-3.1,6.6-6.2,10-9.2l39.9,46.1C126.1,111.2,123.5,113.5,121,115.9z"/>
		<path d="M377.2,103.8c-2.7-2.1-5.5-4.3-8.3-6.3l35.4-49.6c3.7,2.6,7.3,5.4,10.9,8.2L377.2,103.8z"/>
		<path d="M136.7,102.4L99.3,54.2c3.6-2.8,7.3-5.5,11-8.1l34.8,50.1C142.3,98.2,139.4,100.2,136.7,102.4z"/>
		<path d="M360.3,91.8c-2.9-1.9-5.9-3.7-8.9-5.3l30-53.1c3.9,2.2,7.9,4.6,11.7,7L360.3,91.8z"/>
		<path d="M153.7,90.5l-32.1-51.9c3.8-2.4,7.8-4.7,11.8-6.9l29.3,53.5C159.7,86.9,156.7,88.7,153.7,90.5z"/>
		<path d="M342.2,81.6c-3.1-1.5-6.3-3-9.4-4.4l24.1-56c4.2,1.8,8.3,3.7,12.4,5.7L342.2,81.6z"/>
		<path d="M171.9,80.6l-26.4-55c4.1-2,8.3-3.8,12.4-5.6l23.4,56.3C178.2,77.7,175,79.1,171.9,80.6z"/>
		<path d="M323.1,73.4c-3.2-1.2-6.5-2.3-9.8-3.3l17.9-58.3c4.3,1.3,8.7,2.8,12.9,4.4L323.1,73.4z"/>
		<path d="M191,72.6l-20.4-57.5c4.3-1.5,8.6-2.9,13-4.2l17.3,58.5C197.5,70.4,194.2,71.5,191,72.6z"/>
		<path d="M303.3,67.3c-3.3-0.8-6.7-1.6-10.1-2.2l11.6-59.9c4.4,0.9,8.9,1.9,13.3,2.9L303.3,67.3z"/>
		<path d="M210.8,66.8L196.7,7.4c4.4-1,8.9-2,13.3-2.8l10.9,60C217.6,65.3,214.2,66,210.8,66.8z"/>
		<path d="M283,63.4c-3.4-0.5-6.9-0.9-10.3-1.1l5.2-60.8c4.5,0.4,9.1,0.9,13.5,1.5L283,63.4z"/>
		<path d="M231.2,63.1l-7.7-60.5c4.5-0.6,9-1,13.5-1.4l4.5,60.8C238.1,62.3,234.6,62.6,231.2,63.1z"/>
		<path d="M262.3,61.6c-3.4-0.1-6.9-0.1-10.4-0.1l-1.3-61c4.5-0.1,9.1-0.1,13.6,0.1L262.3,61.6z"/>
	</g>
</g>
</svg>
