<?xml version="1.0" encoding="utf-8"?>
<!-- Generator: Adobe Illustrator 23.0.1, SVG Export Plug-In . SVG Version: 6.00 Build 0)  -->
<svg version="1.1" xmlns="http://www.w3.org/2000/svg" xmlns:xlink="http://www.w3.org/1999/xlink" x="10px" y="10px"
	 viewBox="0 0 700 700" style="enable-background:new 0 0 700 700;" xml:space="preserve">
<style type="text/css">
	.st0{display:none;}
</style>
<g id="Warstwa_1" class="st0">
</g>
<g id="Warstwa_2">
	<g>
		<path d="M261.7,487.4l-0.3-13c3.9-0.1,7.8-0.3,11.6-0.6l1,13C270,487.1,265.8,487.3,261.7,487.4z"/>
		<path d="M249.4,487.4c-4.1-0.1-8.2-0.3-12.3-0.7l1-13c3.8,0.3,7.8,0.5,11.6,0.6L249.4,487.4z"/>
		<path d="M286.3,485.5l-1.7-12.9c3.8-0.5,7.7-1.1,11.5-1.8l2.4,12.8C294.5,484.3,290.4,485,286.3,485.5z"/>
		<path d="M224.8,485.4c-4.1-0.5-8.2-1.2-12.2-2l2.4-12.8c3.8,0.7,7.7,1.3,11.5,1.9L224.8,485.4z"/>
		<path d="M310.6,481l-3.1-12.6c3.8-0.9,7.5-1.9,11.2-3l3.7,12.5C318.6,479,314.6,480.1,310.6,481z"/>
		<path d="M200.6,480.8c-4-1-8-2.1-11.9-3.3l3.8-12.4c3.7,1.1,7.5,2.2,11.2,3.1L200.6,480.8z"/>
		<path d="M334.2,473.9l-4.4-12.2c3.6-1.3,7.3-2.7,10.8-4.2l5,12C341.9,471.1,338.1,472.6,334.2,473.9z"/>
		<path d="M176.9,473.6c-3.9-1.4-7.7-2.9-11.5-4.5l5.1-12c3.6,1.5,7.2,3,10.9,4.3L176.9,473.6z"/>
		<path d="M356.9,464.4l-5.7-11.7c3.5-1.7,7-3.5,10.3-5.4l6.3,11.4C364.3,460.7,360.6,462.6,356.9,464.4z"/>
		<path d="M154.2,464c-3.7-1.8-7.4-3.7-10.9-5.7l6.3-11.3c3.4,1.9,6.9,3.7,10.3,5.4L154.2,464z"/>
		<path d="M378.5,452.5l-6.9-11c3.3-2.1,6.5-4.2,9.7-6.4l7.5,10.6C385.4,448,382,450.3,378.5,452.5z"/>
		<path d="M132.6,451.9c-3.5-2.2-6.9-4.5-10.3-6.9l7.5-10.6c3.2,2.2,6.4,4.4,9.7,6.5L132.6,451.9z"/>
		<path d="M398.7,438.3l-8-10.2c3-2.4,6.1-4.9,9-7.4l8.6,9.8C405.1,433.1,401.9,435.8,398.7,438.3z"/>
		<path d="M112.5,437.6c-3.2-2.5-6.4-5.2-9.5-7.9l8.6-9.8c2.9,2.6,5.9,5.1,8.9,7.5L112.5,437.6z"/>
		<path d="M417.3,422.1l-9.1-9.3c2.8-2.7,5.5-5.5,8.1-8.3l9.5,8.8C423.1,416.3,420.2,419.2,417.3,422.1z"/>
		<path d="M94,421.3c-2.9-2.9-5.8-5.8-8.6-8.9l9.6-8.8c2.6,2.9,5.3,5.7,8.1,8.4L94,421.3z"/>
		<path d="M434,404l-10-8.3c2.5-3,4.9-6.1,7.2-9.2l10.4,7.8C439.2,397.6,436.7,400.8,434,404z"/>
		<path d="M77.3,403.1c-2.6-3.2-5.2-6.4-7.6-9.7l10.5-7.7c2.3,3.1,4.7,6.2,7.2,9.2L77.3,403.1z"/>
		<path d="M448.8,384.2L438,377c2.1-3.2,4.2-6.5,6.2-9.9l11.2,6.6C453.3,377.3,451.1,380.8,448.8,384.2z"/>
		<path d="M62.6,383.3c-2.3-3.4-4.4-6.9-6.5-10.5l11.2-6.6c2,3.3,4,6.7,6.1,9.9L62.6,383.3z"/>
		<path d="M461.4,362.9l-11.5-6c1.8-3.4,3.5-7,5.1-10.5l11.8,5.4C465.1,355.6,463.3,359.3,461.4,362.9z"/>
		<path d="M50.2,362c-1.9-3.6-3.7-7.4-5.4-11.1l11.9-5.3c1.6,3.5,3.3,7,5.1,10.5L50.2,362z"/>
		<path d="M471.6,340.4l-12.1-4.7c1.4-3.6,2.7-7.3,4-11l12.3,4.1C474.5,332.7,473.1,336.6,471.6,340.4z"/>
		<path d="M40.1,339.6c-1.5-3.8-2.9-7.7-4.1-11.6l12.4-4c1.2,3.7,2.5,7.4,3.9,11L40.1,339.6z"/>
		<path d="M479.4,317l-12.5-3.4c1-3.7,1.9-7.5,2.8-11.3l12.7,2.7C481.4,309,480.5,313,479.4,317z"/>
		<path d="M32.4,316.1c-1.1-4-2-8-2.9-12l12.7-2.7c0.8,3.8,1.7,7.6,2.7,11.3L32.4,316.1z"/>
		<path d="M484.6,292.9l-12.8-2.1c0.6-3.8,1.1-7.7,1.5-11.5l12.9,1.4C485.8,284.7,485.2,288.8,484.6,292.9z"/>
		<path d="M27.3,292c-0.6-4-1.2-8.2-1.6-12.2l12.9-1.3c0.4,3.8,0.9,7.7,1.5,11.6L27.3,292z"/>
		<path d="M487.2,268.3l-13-0.7c0.2-3.9,0.3-7.8,0.3-11.6h13C487.5,260.1,487.4,264.2,487.2,268.3z"/>
		<path d="M24.8,267.4c-0.2-3.8-0.3-7.6-0.3-11.4l0-0.9l13,0l0,0.8c0,3.6,0.1,7.2,0.3,10.8L24.8,267.4z"/>
		<path d="M474.3,246c-0.2-3.9-0.5-7.8-0.8-11.6l12.9-1.3c0.4,4.1,0.7,8.2,0.9,12.3L474.3,246z"/>
		<path d="M37.9,243.5l-13-0.7c0.2-4.1,0.6-8.2,1-12.3l12.9,1.4C38.4,235.7,38.1,239.6,37.9,243.5z"/>
		<path d="M472,222.8c-0.6-3.8-1.3-7.7-2.1-11.5l12.7-2.6c0.8,4,1.6,8.1,2.2,12.1L472,222.8z"/>
		<path d="M40.4,220.4l-12.8-2.1c0.7-4,1.4-8.1,2.3-12.1l12.7,2.8C41.8,212.7,41,216.5,40.4,220.4z"/>
		<path d="M467.3,200c-1-3.7-2.1-7.5-3.3-11.2l12.4-4c1.3,3.9,2.4,7.9,3.5,11.8L467.3,200z"/>
		<path d="M45.4,197.6l-12.5-3.5c1.1-3.9,2.3-7.9,3.6-11.8l12.3,4.1C47.6,190.1,46.4,193.9,45.4,197.6z"/>
		<path d="M460.1,177.9c-1.4-3.6-2.9-7.2-4.4-10.7l11.9-5.3c1.7,3.7,3.3,7.6,4.7,11.4L460.1,177.9z"/>
		<path d="M52.8,175.5l-12.1-4.8c1.5-3.8,3.1-7.6,4.9-11.4l11.8,5.4C55.8,168.3,54.2,171.9,52.8,175.5z"/>
		<path d="M450.7,156.7c-1.8-3.4-3.6-6.9-5.6-10.2l11.2-6.5c2.1,3.5,4,7.2,5.9,10.8L450.7,156.7z"/>
		<path d="M62.5,154.3L51,148.3c1.9-3.6,3.9-7.3,6-10.8l11.2,6.7C66.3,147.5,64.3,150.9,62.5,154.3z"/>
		<path d="M439,136.5c-2.1-3.2-4.3-6.5-6.6-9.6l10.5-7.7c2.4,3.3,4.8,6.7,7,10.1L439,136.5z"/>
		<path d="M74.5,134.3l-10.8-7.2c2.3-3.4,4.7-6.8,7.2-10.1l10.4,7.8C78.9,127.9,76.6,131.1,74.5,134.3z"/>
		<path d="M425.2,117.8c-2.4-3-5-6-7.6-8.8l9.6-8.8c2.8,3,5.5,6.2,8.1,9.3L425.2,117.8z"/>
		<path d="M88.5,115.7l-10-8.4c2.6-3.1,5.4-6.2,8.2-9.2l9.5,8.9C93.6,109.8,91,112.7,88.5,115.7z"/>
		<path d="M409.5,100.5c-2.7-2.7-5.6-5.4-8.5-8l8.6-9.7c3.1,2.7,6.1,5.6,9,8.4L409.5,100.5z"/>
		<path d="M104.4,98.7l-9-9.4c3-2.8,6-5.6,9.1-8.3l8.5,9.8C110.1,93.3,107.2,96,104.4,98.7z"/>
		<path d="M392.1,85.1c-3-2.4-6.2-4.8-9.3-7l7.6-10.6c3.3,2.4,6.7,4.9,9.9,7.4L392.1,85.1z"/>
		<path d="M122,83.4l-8-10.3c3.2-2.5,6.6-5,9.9-7.3l7.4,10.7C128.2,78.7,125,81,122,83.4z"/>
		<path d="M373.2,71.5c-3.3-2.1-6.6-4.1-10-6l6.4-11.3c3.6,2,7.1,4.1,10.6,6.4L373.2,71.5z"/>
		<path d="M141.1,70.1l-6.8-11.1c3.5-2.2,7.1-4.2,10.6-6.2l6.2,11.4C147.8,66.1,144.4,68.1,141.1,70.1z"/>
		<path d="M352.8,60.1c-3.5-1.7-7-3.4-10.6-4.9l5.1-11.9c3.8,1.6,7.5,3.4,11.2,5.2L352.8,60.1z"/>
		<path d="M161.5,58.9l-5.6-11.7c3.7-1.8,7.5-3.5,11.2-5l5,12C168.5,55.7,165,57.3,161.5,58.9z"/>
		<path d="M331.4,50.9c-3.6-1.3-7.4-2.6-11.1-3.7l3.8-12.4c3.9,1.2,7.9,2.5,11.7,4L331.4,50.9z"/>
		<path d="M182.9,50l-4.3-12.3c3.9-1.4,7.8-2.7,11.7-3.8l3.7,12.5C190.3,47.5,186.6,48.7,182.9,50z"/>
		<path d="M309.1,44c-3.7-0.9-7.6-1.8-11.4-2.5l2.5-12.8c4,0.8,8.1,1.7,12.1,2.7L309.1,44z"/>
		<path d="M205.3,43.4l-3-12.6c4-0.9,8-1.8,12.1-2.5l2.3,12.8C212.9,41.7,209,42.5,205.3,43.4z"/>
		<path d="M286.3,39.6c-3.8-0.5-7.7-1-11.6-1.3l1.1-13c4.1,0.3,8.2,0.8,12.3,1.4L286.3,39.6z"/>
		<path d="M228.2,39.3l-1.6-12.9c4.1-0.5,8.2-0.9,12.3-1.2l1,13C235.9,38.4,232,38.8,228.2,39.3z"/>
		<path d="M263.1,37.6c-3.9-0.1-7.8-0.1-11.7-0.1l-0.3-13c4.1-0.1,8.3-0.1,12.3,0.1L263.1,37.6z"/>
	</g>
</g>
</svg>
